# MagicaVoxel @ Ephtracy

# group
o 

# material
mtllib car.mtl
usemtl palette

# normals
vn -1 0 0
vn 1 0 0
vn 0 0 1
vn 0 0 -1
vn 0 -1 0
vn 0 1 0

# texcoords
vt 0.591797 0.5
vt 0.853516 0.5
vt 0.884766 0.5
vt 0.958984 0.5
vt 0.970703 0.5
vt 0.994141 0.5

# verts
v -0.6 0.1 0.3
v -0.6 0.1 -0.3
v -0.6 0.2 0.2
v -0.6 0.2 0.1
v -0.6 0.2 -0.1
v -0.6 0.2 -0.2
v -0.6 0.3 0.2
v -0.6 0.3 0.1
v -0.6 0.3 -0.1
v -0.6 0.3 -0.2
v -0.6 0.4 0.3
v -0.6 0.4 -0.3
v -0.5 0 0.3
v -0.5 0 0.2
v -0.5 0 -0.2
v -0.5 0 -0.3
v -0.5 0.1 0.3
v -0.5 0.1 0.2
v -0.5 0.1 -0.2
v -0.5 0.1 -0.3
v -0.3 0.4 0.3
v -0.3 0.4 0.2
v -0.3 0.4 -0.2
v -0.3 0.4 -0.3
v -0.3 0.5 0.2
v -0.3 0.5 -0.2
v -0.3 0.6 0.3
v -0.3 0.6 -0.3
v 0.2 0 0.3
v 0.2 0 0.2
v 0.2 0 -0.2
v 0.2 0 -0.3
v 0.2 0.1 0.3
v 0.2 0.1 0.2
v 0.2 0.1 -0.2
v 0.2 0.1 -0.3
v -0.3 0 0.3
v -0.3 0 0.2
v -0.3 0 -0.2
v -0.3 0 -0.3
v -0.3 0.1 0.3
v -0.3 0.1 0.2
v -0.3 0.1 -0.2
v -0.3 0.1 -0.3
v 0.3 0.4 0.3
v 0.3 0.4 0.2
v 0.3 0.4 -0.2
v 0.3 0.4 -0.3
v 0.3 0.5 0.2
v 0.3 0.5 -0.2
v 0.3 0.6 0.3
v 0.3 0.6 -0.3
v 0.4 0 0.3
v 0.4 0 0.2
v 0.4 0 -0.2
v 0.4 0 -0.3
v 0.4 0.1 0.3
v 0.4 0.1 0.2
v 0.4 0.1 -0.2
v 0.4 0.1 -0.3
v 0.5 0.1 0.3
v 0.5 0.1 -0.3
v 0.5 0.2 0.2
v 0.5 0.2 0.1
v 0.5 0.2 -0.1
v 0.5 0.2 -0.2
v 0.5 0.3 0.2
v 0.5 0.3 0.1
v 0.5 0.3 -0.1
v 0.5 0.3 -0.2
v 0.5 0.4 0.3
v 0.5 0.4 -0.3
v -0.6 0.1 0.3
v -0.6 0.4 0.3
v -0.5 0 0.3
v -0.5 0.1 0.3
v -0.5 0.2 0.3
v -0.3 0 0.3
v -0.3 0.1 0.3
v -0.3 0.2 0.3
v -0.3 0.4 0.3
v -0.3 0.6 0.3
v -0.2 0.4 0.3
v -0.2 0.5 0.3
v 0.2 0 0.3
v 0.2 0.1 0.3
v 0.2 0.2 0.3
v 0.2 0.4 0.3
v 0.2 0.5 0.3
v 0.3 0.4 0.3
v 0.3 0.6 0.3
v 0.4 0 0.3
v 0.4 0.1 0.3
v 0.4 0.2 0.3
v 0.5 0.1 0.3
v 0.5 0.4 0.3
v -0.5 0 -0.2
v -0.5 0.1 -0.2
v -0.3 0 -0.2
v -0.3 0.1 -0.2
v 0.2 0 -0.2
v 0.2 0.1 -0.2
v 0.4 0 -0.2
v 0.4 0.1 -0.2
v -0.5 0 0.2
v -0.5 0.1 0.2
v -0.3 0 0.2
v -0.3 0.1 0.2
v 0.2 0 0.2
v 0.2 0.1 0.2
v 0.4 0 0.2
v 0.4 0.1 0.2
v -0.6 0.1 -0.3
v -0.6 0.4 -0.3
v -0.5 0 -0.3
v -0.5 0.1 -0.3
v -0.5 0.2 -0.3
v -0.3 0 -0.3
v -0.3 0.1 -0.3
v -0.3 0.2 -0.3
v -0.3 0.4 -0.3
v -0.3 0.6 -0.3
v 0.2 0 -0.3
v 0.2 0.1 -0.3
v 0.2 0.2 -0.3
v 0.3 0.4 -0.3
v 0.3 0.6 -0.3
v 0.4 0 -0.3
v 0.4 0.1 -0.3
v 0.4 0.2 -0.3
v 0.5 0.1 -0.3
v 0.5 0.4 -0.3
v -0.5 0 0.3
v -0.3 0 0.3
v 0.2 0 0.3
v 0.4 0 0.3
v -0.5 0 0.2
v -0.3 0 0.2
v 0.2 0 0.2
v 0.4 0 0.2
v -0.5 0 -0.2
v -0.3 0 -0.2
v 0.2 0 -0.2
v 0.4 0 -0.2
v -0.5 0 -0.3
v -0.3 0 -0.3
v 0.2 0 -0.3
v 0.4 0 -0.3
v -0.6 0.1 0.3
v -0.5 0.1 0.3
v -0.3 0.1 0.3
v 0.2 0.1 0.3
v 0.4 0.1 0.3
v 0.5 0.1 0.3
v -0.5 0.1 0.2
v -0.3 0.1 0.2
v 0.2 0.1 0.2
v 0.4 0.1 0.2
v -0.5 0.1 -0.2
v -0.3 0.1 -0.2
v 0.2 0.1 -0.2
v 0.4 0.1 -0.2
v -0.6 0.1 -0.3
v -0.5 0.1 -0.3
v -0.3 0.1 -0.3
v 0.2 0.1 -0.3
v 0.4 0.1 -0.3
v 0.5 0.1 -0.3
v -0.6 0.4 0.3
v -0.3 0.4 0.3
v 0.3 0.4 0.3
v 0.5 0.4 0.3
v -0.3 0.4 0.2
v 0.3 0.4 0.2
v -0.3 0.4 -0.2
v 0.3 0.4 -0.2
v -0.6 0.4 -0.3
v -0.3 0.4 -0.3
v 0.3 0.4 -0.3
v 0.5 0.4 -0.3
v -0.3 0.6 0.3
v 0.3 0.6 0.3
v -0.3 0.6 -0.3
v 0.3 0.6 -0.3

# faces
f 3/3/1 2/3/1 1/3/1
f 4/3/1 2/3/1 3/3/1
f 5/3/1 2/3/1 4/3/1
f 6/3/1 2/3/1 5/3/1
f 7/3/1 3/3/1 1/3/1
f 7/4/1 4/4/1 3/4/1
f 8/3/1 5/3/1 4/3/1
f 8/4/1 4/4/1 7/4/1
f 9/4/1 6/4/1 5/4/1
f 9/3/1 5/3/1 8/3/1
f 10/3/1 2/3/1 6/3/1
f 10/4/1 6/4/1 9/4/1
f 11/3/1 9/3/1 8/3/1
f 11/3/1 8/3/1 7/3/1
f 11/3/1 10/3/1 9/3/1
f 11/3/1 7/3/1 1/3/1
f 12/3/1 2/3/1 10/3/1
f 12/3/1 10/3/1 11/3/1
f 17/6/1 14/6/1 13/6/1
f 18/6/1 14/6/1 17/6/1
f 19/6/1 16/6/1 15/6/1
f 20/6/1 16/6/1 19/6/1
f 25/3/1 22/3/1 21/3/1
f 25/1/1 23/1/1 22/1/1
f 26/3/1 24/3/1 23/3/1
f 26/1/1 23/1/1 25/1/1
f 27/3/1 25/3/1 21/3/1
f 27/3/1 26/3/1 25/3/1
f 28/3/1 24/3/1 26/3/1
f 28/3/1 26/3/1 27/3/1
f 33/6/1 30/6/1 29/6/1
f 34/6/1 30/6/1 33/6/1
f 35/6/1 32/6/1 31/6/1
f 36/6/1 32/6/1 35/6/1
f 37/6/2 38/6/2 41/6/2
f 41/6/2 38/6/2 42/6/2
f 39/6/2 40/6/2 43/6/2
f 43/6/2 40/6/2 44/6/2
f 45/3/2 46/3/2 49/3/2
f 46/1/2 47/1/2 49/1/2
f 47/3/2 48/3/2 50/3/2
f 49/1/2 47/1/2 50/1/2
f 45/3/2 49/3/2 51/3/2
f 49/3/2 50/3/2 51/3/2
f 50/3/2 48/3/2 52/3/2
f 51/3/2 50/3/2 52/3/2
f 53/6/2 54/6/2 57/6/2
f 57/6/2 54/6/2 58/6/2
f 55/6/2 56/6/2 59/6/2
f 59/6/2 56/6/2 60/6/2
f 61/3/2 62/3/2 63/3/2
f 63/3/2 62/3/2 64/3/2
f 64/3/2 62/3/2 65/3/2
f 65/3/2 62/3/2 66/3/2
f 61/3/2 63/3/2 67/3/2
f 63/2/2 64/2/2 67/2/2
f 64/3/2 65/3/2 68/3/2
f 67/2/2 64/2/2 68/2/2
f 65/2/2 66/2/2 69/2/2
f 68/3/2 65/3/2 69/3/2
f 66/3/2 62/3/2 70/3/2
f 69/2/2 66/2/2 70/2/2
f 68/3/2 69/3/2 71/3/2
f 67/3/2 68/3/2 71/3/2
f 69/3/2 70/3/2 71/3/2
f 61/3/2 67/3/2 71/3/2
f 70/3/2 62/3/2 72/3/2
f 71/3/2 70/3/2 72/3/2
f 76/3/3 74/3/3 73/3/3
f 77/3/3 74/3/3 76/3/3
f 78/6/3 76/6/3 75/6/3
f 78/6/3 77/6/3 76/6/3
f 79/6/3 77/6/3 78/6/3
f 80/3/3 74/3/3 77/3/3
f 80/6/3 77/6/3 79/6/3
f 81/3/3 74/3/3 80/3/3
f 83/3/3 82/3/3 81/3/3
f 83/3/3 81/3/3 80/3/3
f 83/3/3 80/3/3 79/3/3
f 84/3/3 82/3/3 83/3/3
f 86/3/3 83/3/3 79/3/3
f 87/3/3 83/3/3 86/3/3
f 88/1/3 84/1/3 83/1/3
f 88/3/3 83/3/3 87/3/3
f 89/3/3 82/3/3 84/3/3
f 89/1/3 84/1/3 88/1/3
f 90/3/3 88/3/3 87/3/3
f 90/3/3 89/3/3 88/3/3
f 91/3/3 82/3/3 89/3/3
f 91/3/3 89/3/3 90/3/3
f 92/6/3 87/6/3 86/6/3
f 92/6/3 86/6/3 85/6/3
f 93/6/3 87/6/3 92/6/3
f 94/3/3 90/3/3 87/3/3
f 94/6/3 87/6/3 93/6/3
f 95/3/3 94/3/3 93/3/3
f 96/3/3 90/3/3 94/3/3
f 96/3/3 94/3/3 95/3/3
f 99/6/3 98/6/3 97/6/3
f 100/6/3 98/6/3 99/6/3
f 103/6/3 102/6/3 101/6/3
f 104/6/3 102/6/3 103/6/3
f 105/6/4 106/6/4 107/6/4
f 107/6/4 106/6/4 108/6/4
f 109/6/4 110/6/4 111/6/4
f 111/6/4 110/6/4 112/6/4
f 113/3/4 114/3/4 116/3/4
f 116/3/4 114/3/4 117/3/4
f 115/6/4 116/6/4 118/6/4
f 116/6/4 117/6/4 118/6/4
f 118/6/4 117/6/4 119/6/4
f 117/3/4 114/3/4 120/3/4
f 119/6/4 117/6/4 120/6/4
f 120/3/4 114/3/4 121/3/4
f 121/3/4 122/3/4 124/3/4
f 120/3/4 121/3/4 124/3/4
f 119/3/4 120/3/4 124/3/4
f 124/3/4 122/3/4 125/3/4
f 125/3/4 122/3/4 126/3/4
f 126/3/4 122/3/4 127/3/4
f 123/6/4 124/6/4 128/6/4
f 124/6/4 125/6/4 128/6/4
f 128/6/4 125/6/4 129/6/4
f 125/3/4 126/3/4 130/3/4
f 129/6/4 125/6/4 130/6/4
f 129/3/4 130/3/4 131/3/4
f 130/3/4 126/3/4 132/3/4
f 131/3/4 130/3/4 132/3/4
f 137/6/5 134/6/5 133/6/5
f 138/6/5 134/6/5 137/6/5
f 139/6/5 136/6/5 135/6/5
f 140/6/5 136/6/5 139/6/5
f 145/6/5 142/6/5 141/6/5
f 146/6/5 142/6/5 145/6/5
f 147/6/5 144/6/5 143/6/5
f 148/6/5 144/6/5 147/6/5
f 155/3/5 150/3/5 149/3/5
f 156/3/5 152/3/5 151/3/5
f 157/3/5 152/3/5 156/3/5
f 158/3/5 154/3/5 153/3/5
f 159/3/5 157/3/5 156/3/5
f 159/3/5 158/3/5 157/3/5
f 159/3/5 155/3/5 149/3/5
f 159/3/5 156/3/5 155/3/5
f 160/3/5 158/3/5 159/3/5
f 161/3/5 158/3/5 160/3/5
f 162/3/5 154/3/5 158/3/5
f 162/3/5 158/3/5 161/3/5
f 163/3/5 159/3/5 149/3/5
f 164/3/5 159/3/5 163/3/5
f 165/3/5 161/3/5 160/3/5
f 166/3/5 161/3/5 165/3/5
f 167/3/5 154/3/5 162/3/5
f 168/3/5 154/3/5 167/3/5
f 169/3/6 170/3/6 173/3/6
f 171/3/6 172/3/6 174/3/6
f 169/3/6 173/3/6 175/3/6
f 174/3/6 172/3/6 176/3/6
f 169/3/6 175/3/6 177/3/6
f 177/3/6 175/3/6 178/3/6
f 176/3/6 172/3/6 179/3/6
f 179/3/6 172/3/6 180/3/6
f 181/3/6 182/3/6 183/3/6
f 183/3/6 182/3/6 184/3/6
